<?xml version="1.0" standalone="no"?>
<!DOCTYPE svg PUBLIC "-//W3C//DTD SVG 20010904//EN"
 "http://www.w3.org/TR/2001/REC-SVG-20010904/DTD/svg10.dtd">
<svg version="1.0" xmlns="http://www.w3.org/2000/svg"
 width="500.000000pt" height="500.000000pt" viewBox="0 0 500.000000 500.000000"
 preserveAspectRatio="xMidYMid meet">
<metadata>
Created by potrace 1.14, written by Peter Selinger 2001-2017
</metadata>
<g transform="translate(0.000000,500.000000) scale(0.100000,-0.100000)"
fill="#000000" stroke="none">
<path d="M0 2500 l0 -2500 2500 0 2500 0 0 2500 0 2500 -2500 0 -2500 0 0
-2500z m2290 1060 c11 -11 20 -31 20 -45 0 -14 -9 -34 -20 -45 -12 -12 -20
-33 -20 -53 0 -27 13 -45 85 -117 47 -47 85 -90 85 -97 0 -35 -31 -17 -121 73
-87 87 -99 103 -99 133 0 22 -8 43 -21 57 -61 65 28 157 91 94z m270 -2 c11
-12 20 -31 20 -43 0 -31 -36 -65 -70 -65 -29 0 -70 38 -70 65 0 7 9 24 21 39
26 33 70 35 99 4z m256 14 c19 -12 35 -52 29 -71 -3 -10 -14 -26 -25 -36 -13
-12 -20 -31 -20 -55 0 -34 -9 -46 -96 -131 -52 -52 -99 -95 -105 -97 -5 -2
-12 4 -15 13 -5 12 18 42 85 109 100 101 107 119 66 168 -30 36 -31 48 -4 82
20 26 61 35 85 18z m-289 -196 c-4 -9 -11 -16 -17 -16 -17 0 -24 31 -9 41 18
11 34 -5 26 -25z m-408 -65 c7 -5 11 -17 7 -28 -5 -14 23 -46 125 -142 l131
-124 62 62 c34 33 65 61 70 61 4 0 36 -27 71 -61 l63 -60 127 122 c90 88 125
128 122 140 -7 25 16 41 50 37 25 -3 28 -7 31 -47 3 -42 2 -43 -22 -39 -21 4
-44 -14 -150 -121 l-126 -126 60 -60 c33 -33 60 -64 60 -69 0 -6 -28 -38 -62
-73 l-61 -62 128 -123 c79 -75 136 -123 149 -123 15 0 22 -9 27 -32 9 -44 -2
-55 -47 -51 -33 2 -39 7 -39 25 0 15 -40 63 -125 148 l-125 125 -67 -67 -67
-66 -64 61 c-35 34 -68 62 -73 62 -5 0 -63 -54 -129 -120 -80 -80 -120 -128
-120 -142 0 -17 -8 -24 -32 -29 -44 -9 -55 2 -51 47 3 35 6 39 28 36 20 -2 49
22 150 123 l125 125 -63 63 c-34 34 -62 67 -62 72 0 5 27 37 60 70 l60 60
-125 125 c-85 85 -132 125 -147 125 -18 0 -24 7 -26 28 -2 16 -1 35 2 43 6 15
53 19 75 5z m408 -7 c8 -21 -13 -42 -28 -27 -13 13 -5 43 11 43 6 0 13 -7 17
-16z m0 -90 c8 -20 -8 -36 -26 -25 -15 10 -8 41 9 41 6 0 13 -7 17 -16z m-642
-54 c12 -14 31 -20 59 -20 38 0 47 -6 133 -92 84 -84 112 -128 82 -128 -6 0
-53 38 -104 85 -100 92 -125 102 -172 65 -35 -27 -67 -25 -92 6 -25 32 -26 52
-5 82 20 29 74 30 99 2z m1343 -39 c2 -37 -1 -57 -10 -62 -23 -15 -57 -10 -78
11 -12 12 -33 20 -53 20 -27 0 -45 -13 -117 -85 -47 -47 -93 -85 -102 -85 -38
0 -14 40 76 128 87 84 98 92 134 92 27 0 45 6 57 20 14 15 29 20 54 18 36 -3
36 -3 39 -57z m-1348 -219 c47 -38 16 -112 -46 -112 -58 0 -83 63 -42 107 26
28 58 29 88 5z m1338 9 c9 -5 12 -25 10 -62 -3 -53 -3 -54 -36 -57 -42 -4 -72
21 -72 60 0 50 58 85 98 59z m-1225 -67 c-3 -8 -12 -14 -19 -14 -20 0 -30 30
-13 40 17 11 40 -7 32 -26z m180 0 c-3 -8 -12 -14 -19 -14 -20 0 -30 30 -13
40 17 11 40 -7 32 -26z m717 5 c0 -12 -7 -19 -20 -19 -22 0 -29 35 -7 43 18 6
27 -2 27 -24z m175 5 c0 -10 -8 -20 -17 -22 -18 -3 -26 27 -11 42 12 11 28 0
28 -20z m-985 -5 c0 -25 -33 -22 -38 4 -2 12 3 17 17 17 15 0 21 -6 21 -21z
m900 1 c0 -13 -7 -20 -20 -20 -13 0 -20 7 -20 20 0 13 7 20 20 20 13 0 20 -7
20 -20z m-813 -76 c4 -11 -24 -46 -93 -115 -86 -86 -103 -99 -132 -99 -19 0
-45 -9 -59 -20 -33 -26 -61 -25 -90 2 -27 25 -29 54 -7 86 20 29 74 30 99 2
11 -12 31 -20 49 -20 26 0 46 15 121 90 49 50 93 90 98 90 4 0 10 -7 14 -16z
m800 -74 c101 -97 132 -110 168 -70 14 15 29 20 54 18 36 -3 36 -3 39 -57 2
-37 -1 -57 -10 -62 -23 -15 -57 -10 -78 11 -13 13 -33 20 -58 20 -34 0 -46 9
-136 99 -69 69 -97 104 -93 115 4 9 9 16 13 16 4 0 49 -40 101 -90z m-530
-196 c4 -11 -21 -43 -81 -103 -94 -94 -104 -120 -66 -168 34 -44 21 -87 -33
-106 -48 -17 -99 41 -76 86 7 12 18 26 25 30 9 5 14 26 14 52 0 42 3 46 97
134 54 50 101 91 106 91 4 0 10 -7 14 -16z m93 -4 c0 -13 -7 -20 -20 -20 -19
0 -27 20 -13 33 13 14 33 6 33 -13z m177 -72 c84 -84 93 -96 93 -130 0 -26 7
-44 25 -62 30 -30 32 -56 7 -87 -26 -31 -78 -31 -104 0 -25 31 -23 57 7 87 41
41 33 61 -66 160 -64 64 -90 97 -86 108 4 9 12 16 19 16 7 0 54 -42 105 -92z
m-177 -18 c0 -13 -7 -20 -20 -20 -13 0 -20 7 -20 20 0 13 7 20 20 20 13 0 20
-7 20 -20z m0 -91 c0 -23 -28 -26 -37 -3 -6 16 15 37 29 28 4 -3 8 -14 8 -25z
m33 -91 c32 -37 16 -83 -36 -101 -27 -10 -66 10 -77 38 -28 72 61 122 113 63z
m-1093 -311 c30 -15 52 -75 43 -117 -10 -50 -45 -70 -124 -70 l-69 0 0 93 c0
52 3 97 7 100 11 12 117 7 143 -6z m320 -7 c0 -18 -7 -20 -70 -20 l-70 0 0
-60 0 -60 70 0 c63 0 70 -2 70 -20 0 -18 -7 -20 -74 -20 -99 0 -106 8 -106
109 0 43 3 81 7 84 3 4 44 7 90 7 76 0 83 -2 83 -20z m130 -42 c0 -78 16 -98
76 -98 l43 0 3 77 c3 65 6 78 21 81 15 3 17 -7 17 -97 l0 -101 -60 0 c-105 0
-140 35 -140 140 0 49 5 60 27 60 9 0 13 -17 13 -62z m437 46 c2 -7 -21 -39
-52 -72 -30 -33 -55 -62 -55 -65 0 -3 24 -7 52 -9 41 -2 54 -7 56 -20 3 -16
-6 -18 -87 -18 -73 0 -91 3 -91 15 0 8 25 43 56 77 l56 63 -56 3 c-48 3 -56 6
-56 23 0 18 6 20 87 17 53 -2 88 -7 90 -14z m123 -23 c0 -49 17 -63 72 -59
l43 3 3 48 c3 39 6 47 23 47 16 0 19 -7 19 -49 0 -42 -4 -53 -26 -70 -15 -12
-33 -21 -40 -21 -9 0 -14 -11 -14 -30 0 -23 -4 -30 -20 -30 -16 0 -20 7 -20
30 0 20 -5 30 -15 30 -9 0 -27 11 -40 25 -19 18 -25 35 -25 70 0 38 3 45 20
45 17 0 20 -7 20 -39z m431 29 c34 -19 20 -120 -16 -120 -24 0 -17 -17 18 -44
l32 -26 -30 0 c-19 0 -44 11 -65 28 -19 16 -43 31 -52 35 -10 3 -18 13 -18 21
0 11 14 16 53 18 48 3 52 5 55 31 3 27 3 27 -57 27 l-61 0 0 -80 c0 -73 -2
-80 -20 -80 -18 0 -20 7 -20 84 0 118 -2 116 87 116 41 0 83 -5 94 -10z m159
-90 c0 -93 -1 -100 -20 -100 -19 0 -20 7 -20 100 0 93 1 100 20 100 19 0 20
-7 20 -100z m280 80 c0 -18 -7 -20 -70 -20 l-70 0 0 -60 0 -59 72 -3 c60 -2
73 -6 76 -20 3 -16 -6 -18 -74 -18 -105 0 -114 9 -114 110 0 42 3 80 7 83 3 4
44 7 90 7 76 0 83 -2 83 -20z m140 -60 l0 -80 70 0 c63 0 70 -2 70 -20 0 -19
-7 -20 -90 -20 l-90 0 0 100 c0 93 1 100 20 100 18 0 20 -7 20 -80z m-1712
-22 c3 -16 -5 -18 -57 -18 -55 0 -61 2 -61 20 0 19 5 21 57 18 46 -2 59 -7 61
-20z m1562 2 c0 -18 -7 -20 -60 -20 -53 0 -60 2 -60 20 0 18 7 20 60 20 53 0
60 -2 60 -20z"/>
<path d="M2390 2965 l-115 -115 118 -118 117 -117 117 117 118 118 -115 115
c-63 63 -117 115 -120 115 -3 0 -57 -52 -120 -115z m199 -36 c25 -25 31 -39
31 -76 0 -36 -6 -50 -29 -73 -33 -33 -69 -45 -107 -36 -15 4 -39 20 -55 36
-43 42 -41 100 5 146 29 29 41 34 79 34 37 0 51 -5 76 -31z"/>
<path d="M2467 2892 c-23 -25 -21 -58 3 -82 24 -24 48 -25 78 -4 26 18 30 65
6 88 -21 22 -67 20 -87 -2z"/>
<path d="M1350 1830 l0 -60 55 0 c59 0 75 14 75 64 0 39 -25 56 -81 56 l-49 0
0 -60z"/>
</g>
</svg>
